PathFileType	4	(X/Y/Z)	..\data\2014004\dynamic\2014004_C4_02.trc
DataRate	CameraRate	NumFrames	NumMarkers	Units	OrigDataRate	OrigDataStartFrame	OrigNumFrames
100.000000	100.000000	4	52	mm	100.000000	43	172
Frame#	Time	L_IAS			L_IPS			R_IPS			R_IAS			L_FTC			L_FLE			L_FME			L_FAX			L_TTC			L_FAL			L_TAM			L_FCC			L_FM1			L_FM2			L_FM5			R_FTC			R_FLE			R_FME			R_FAX			R_TTC			R_FAL			R_TAM			R_FCC			R_FM1			R_FM2			R_FM5			CV7			TV10			SXS			SJN			L_SIA			L_SRS			L_SAA			L_SAE			L_HLE			L_HME			L_UOA			L_RSP			L_UHE			L_HM2			L_HM5			R_SIA			R_SRS			R_SAA			R_SAE			R_HLE			R_HME			R_UOA			R_RSP			R_UHE			R_HM2			R_HM5			
		X1	Y1	Z1	X2	Y2	Z2	X3	Y3	Z3	X4	Y4	Z4	X5	Y5	Z5	X6	Y6	Z6	X7	Y7	Z7	X8	Y8	Z8	X9	Y9	Z9	X10	Y10	Z10	X11	Y11	Z11	X12	Y12	Z12	X13	Y13	Z13	X14	Y14	Z14	X15	Y15	Z15	X16	Y16	Z16	X17	Y17	Z17	X18	Y18	Z18	X19	Y19	Z19	X20	Y20	Z20	X21	Y21	Z21	X22	Y22	Z22	X23	Y23	Z23	X24	Y24	Z24	X25	Y25	Z25	X26	Y26	Z26	X27	Y27	Z27	X28	Y28	Z28	X29	Y29	Z29	X30	Y30	Z30	X31	Y31	Z31	X32	Y32	Z32	X33	Y33	Z33	X34	Y34	Z34	X35	Y35	Z35	X36	Y36	Z36	X37	Y37	Z37	X38	Y38	Z38	X39	Y39	Z39	X40	Y40	Z40	X41	Y41	Z41	X42	Y42	Z42	X43	Y43	Z43	X44	Y44	Z44	X45	Y45	Z45	X46	Y46	Z46	X47	Y47	Z47	X48	Y48	Z48	X49	Y49	Z49	X50	Y50	Z50	X51	Y51	Z51	X52	Y52	Z52	

44	0.43	-612.2186889648439	951.0623168945315	126.9377212524414	-804.5366821289065	981.0982055664065	210.6613311767578	-801.1791992187502	977.9801025390627	301.4618225097656	-602.6015625000001	961.4619140625002	358.4298095703125	-702.4340209960939	893.1470947265627	66.28092956542962	-727.6021118164064	477.9875793457032	121.8437499999999	-713.6132202148439	484.8818664550782	244.2947692871093	-752.8978881835939	418.8267517089845	116.3709335327148	-690.0476684570314	395.1546630859376	185.3383026123046	-829.393005371094	63.51649093627931	161.4272460937499	-808.101745605469	85.04427337646486	255.6060791015625	-881.7337646484377	32.4564323425293	213.5585632324218	-675.2108764648439	24.12640762329102	248.4519348144531	-675.9371948242189	40.07527160644532	191.9660186767578	-705.7854614257814	19.8407154083252	136.8781127929687	-644.7921142578126	884.7515258789065	427.3457336425782	-535.4796752929689	473.6237182617189	402.2773132324219	-502.3425292968752	487.286102294922	278.6263732910156	-544.9730834960939	438.2810058593751	402.0265808105469	-476.7855224609377	430.3438415527345	360.3758850097656	-578.8059082031251	75.73172760009767	357.6585693359375	-561.2648925781251	106.8442535400391	265.03125	-628.8344116210939	38.95859527587891	294.7042541503906	-429.1158447265627	47.33806991577149	284.1481628417969	-443.484832763672	58.81545639038087	336.372314453125	-468.4140625000002	37.71335220336915	378.9299621582031	-728.7125854492189	1470.342163085938	220.4213562011718	-818.9312744140627	1246.198120117188	231.956314086914	-580.3029174804689	1186.137573242188	222.5259094238281	-614.7899780273439	1374.71142578125	221.8007354736328	-819.9677734375002	1275.712524414063	112.3144836425781	-785.5112915039065	1415.298095703125	145.9030609130859	-748.1931762695314	1417.493286132813	59.68631362915031	-677.6926879882814	1418.459350585938	32.61594390869133	-676.6301879882814	1092.097045898438	-30.4380760192872	-700.8560180664064	1086.175415039063	52.3519096374511	-707.9940185546876	1066.578857421875	5.47190093994132	-487.2767333984376	897.8255004882815	-0.2419979870319964	-557.2880859375001	875.9984130859377	-31.19653701782234	-436.4455871582032	831.487976074219	-12.16370296478277	-532.4950561523439	789.5252075195315	-20.99323463439948	-821.0480957031252	1269.410278320313	348.1336975097656	-780.818542480469	1411.404296875	308.2708435058593	-723.4015502929689	1423.184326171875	387.66796875	-661.9113769531251	1421.605346679688	404.1674194335938	-780.1005249023441	1125.391357421875	508.2602844238281	-808.2649536132815	1118.32177734375	422.1686706542969	-825.3494873046878	1117.180053710938	473.1368103027344	-706.4041137695315	860.883972167969	495.2523803710938	-773.6155395507816	873.0804443359377	537.365966796875	-696.1062011718752	770.6360473632815	514.61962890625	-798.6166992187503	792.3095703125002	533.7877807617188	
45	0.44	-601.2192993164064	949.5220336914065	127.1875610351562	-793.514099121094	979.9109497070315	210.5745086669922	-790.4119262695315	976.632751464844	301.1514587402343	-591.8303833007814	960.2962646484377	358.9070739746094	-692.0190429687501	891.9326171875002	66.2532653808593	-723.9415283203126	477.7659912109376	121.7849884033203	-709.6510620117189	484.3950500488282	244.1341094970703	-750.0698242187501	418.8932495117189	116.3683547973632	-687.3195190429689	394.3432922363282	185.0704040527343	-829.3039550781252	64.1031951904297	161.8615264892577	-807.5216064453127	85.56326293945314	255.9244537353515	-881.557312011719	33.26575469970704	214.3117065429687	-675.1686401367189	24.13072395324708	248.3837738037109	-675.9484252929689	39.94226074218751	191.9117584228515	-706.0430908203126	19.87641716003418	136.9988861083984	-634.4716796875001	883.4440917968752	427.6367187500001	-523.2596435546876	472.2734985351564	400.6225585937501	-490.8421020507814	486.9105529785157	276.8587646484375	-530.4347534179689	436.8309936523439	400.2967529296876	-462.0847778320314	431.8837890625001	358.5996704101562	-542.3909301757814	72.97277832031251	356.4936218261719	-527.0369873046876	104.8733901977539	263.7873229980469	-590.7752075195314	33.65761947631837	293.6795654296875	-391.8652343750002	51.25451660156251	281.6143188476562	-406.5590820312502	62.31137084960939	333.8866271972656	-430.1288146972658	40.31476974487305	376.8716125488281	-717.3610229492189	1469.236206054688	220.7024993896484	-807.721618652344	1245.143188476563	231.9727325439453	-569.1410522460939	1184.928955078125	222.9204864501953	-603.4217529296876	1373.605834960938	222.3045349121093	-808.2580566406252	1274.756103515625	112.1945800781249	-774.0930786132815	1414.222412109375	146.0992584228515	-736.6041870117189	1416.570068359375	59.96541976928703	-665.9867553710939	1417.74609375	33.18472671508782	-662.0415039062501	1091.60107421875	-30.81736564636239	-686.1260375976564	1085.105834960938	51.96693420410149	-692.8252563476564	1065.284301757813	5.157978534698402	-467.9713439941407	901.968688964844	-0.9272270202637294	-537.1989135742189	878.3806762695315	-31.4051933288575	-415.308563232422	837.113952636719	-13.12430286407476	-510.2138977050782	792.4092407226565	-20.95834159851081	-810.0569458007815	1268.26220703125	348.0288391113281	-769.6292724609377	1410.29052734375	308.4984436035156	-712.3278808593751	1421.956665039063	388.0079040527344	-650.9211425781251	1420.301391601563	404.6672973632813	-770.2267456054691	1124.466796875	508.2240600585938	-798.2940063476565	1117.660522460938	422.1307678222656	-815.4602050781253	1116.609008789063	473.0958251953125	-697.9641723632815	859.5715332031252	495.0450134277344	-765.1082153320315	872.1004028320315	537.1851196289062	-688.2630004882815	769.1579589843752	514.056884765625	-790.6156616210941	791.4099121093752	533.4210815429688	
46	0.45	-590.0784912109376	947.9359130859377	127.4727706909179	-782.406433105469	978.6573486328127	210.51904296875	-779.552673339844	975.2380981445315	300.8952331542968	-580.9566650390626	958.9974365234377	359.3769836425781	-681.4991455078126	890.6985473632815	66.24708557128899	-720.0299072265626	477.5614318847657	121.6918334960937	-705.3906250000001	483.896942138672	243.9714965820312	-746.9953002929689	418.9973754882814	116.3408966064453	-684.3836059570314	393.5220336914064	184.7514648437499	-829.168640136719	64.78458404541017	162.2134246826171	-806.8612060546877	86.17877197265626	256.1605834960937	-881.3354492187502	34.23764038085938	214.9662475585937	-675.1574707031251	24.16397285461426	248.3125305175781	-675.9780883789064	39.80644607543946	191.8531646728515	-706.3111572265626	19.91408157348633	137.0983581542968	-624.0662231445314	882.0186767578127	427.9556579589844	-511.4562988281252	470.7400512695314	398.9068298339844	-479.8502807617189	486.2000427246095	274.9787292480469	-516.4152832031251	435.3285522460939	398.5691528320313	-447.9007263183595	433.2804565429689	356.7850646972656	-506.9288635253908	71.29055023193361	355.4808959960938	-493.6283569335939	103.8124618530274	262.7532043457031	-553.5528564453126	29.55461502075196	292.726806640625	-355.7981262207032	55.96223831176759	279.4731140136719	-370.8331604003907	66.61180877685548	331.7567749023438	-393.0861816406252	43.83781433105469	375.1492309570312	-705.9528198242189	1468.01171875	221.0570526123047	-796.4473876953127	1243.968872070313	232.0464172363281	-557.8903808593751	1183.626953125	223.3808898925781	-591.9934692382814	1372.39306640625	222.8899993896484	-796.4703369140627	1273.705932617188	112.1452331542968	-762.5964355468751	1413.041625976563	146.3553314208984	-724.9223632812501	1415.553833007813	60.32171249389641	-654.1895141601564	1416.932861328125	33.83022689819329	-647.5266113281251	1091.071044921875	-31.16003227233895	-671.5385742187501	1083.983520507813	51.58240509033196	-677.8007202148439	1063.9375	4.810085773467936	-449.0691833496095	905.997497558594	-1.461989521980341	-517.4864501953126	880.7153930664065	-31.58903121948249	-394.6602783203126	842.6141357421877	-13.85151004791265	-488.3763427734376	795.2856445312502	-20.9138145446778	-798.9937744140627	1266.974365234375	348.0087890624999	-758.3987426757814	1409.047729492188	308.8002319335937	-701.2156372070314	1420.60302734375	388.428466796875	-639.9099731445314	1418.873779296875	405.2447204589844	-760.1697998046877	1123.384033203125	508.2921142578125	-788.209899902344	1116.840576171875	422.2489318847656	-805.4299926757816	1115.876831054688	473.2135620117188	-689.2003173828127	858.1658325195315	494.8585510253907	-756.2402343750002	870.9750976562502	537.1033325195312	-680.0345458984377	767.5919799804689	513.4795532226562	-782.1961669921878	790.3565673828127	533.2044067382812	
47	0.46	-578.8136596679689	946.3106689453127	127.7754821777343	-771.2129516601565	977.3477783203127	210.5058288574218	-768.5933837890627	973.807800292969	300.7130126953124	-569.9736938476564	957.5738525390627	359.815673828125	-670.8746948242189	889.456726074219	66.26393890380852	-715.8083496093751	477.3647766113282	121.5669555664062	-700.7776489257814	483.3811950683595	243.8043823242187	-743.6124267578126	419.1324157714845	116.2865905761718	-681.1912231445314	392.6929931640626	184.3893432617187	-828.974060058594	65.56367492675783	162.454849243164	-806.1282958984377	86.89608001708986	256.2954101562499	-881.067565917969	35.38224411010743	215.4812927246093	-675.1705322265626	24.23440742492676	248.2365264892578	-676.0134277343751	39.6814193725586	191.7891845703124	-706.5711059570314	19.95734596252442	137.1676483154296	-613.5355224609376	880.499694824219	428.2931213378907	-499.9578247070314	469.0813598632814	397.1582946777344	-469.2524719238283	485.2238159179689	273.0171508789062	-502.8701171875002	433.7950744628907	396.8636779785157	-434.1651611328127	434.530242919922	354.9593200683594	-472.777313232422	70.55636596679689	354.5767822265625	-461.3369750976564	103.5632858276367	261.8870239257812	-517.5465087890626	26.55105781555176	291.7954711914062	-321.1981811523439	61.33362960815431	277.7702331542969	-336.6079406738282	71.56847381591798	330.0242004394531	-357.6279602050782	48.10640716552736	373.7692260742188	-694.4866333007814	1466.675048828125	221.4920501708984	-785.1055297851565	1242.685791015625	232.1797637939453	-546.5502319335939	1182.238891601563	223.9082489013672	-580.5015258789064	1371.080200195313	223.558837890625	-784.6108398437502	1272.5673828125	112.1651763916015	-751.0199584960939	1411.767944335938	146.678237915039	-713.1454467773439	1414.44970703125	60.75580596923821	-642.2988891601564	1416.022827148438	34.55331039428704	-633.0919189453126	1090.505004882813	-31.45799064636239	-657.0885009765626	1082.806762695313	51.21461868286126	-662.9338378906251	1062.5322265625	4.436381816863934	-430.5684509277345	909.8867187500002	-1.846092581749015	-498.175750732422	882.9783325195315	-31.73996353149421	-374.5119018554688	847.948425292969	-14.35056400299077	-467.0137939453126	798.127868652344	-20.86522293090826	-787.856628417969	1265.560302734375	348.0779724121093	-747.1234130859376	1407.686279296875	309.1760253906249	-690.0622558593751	1419.134033203125	388.9300231933594	-628.8751831054689	1417.331665039063	405.9011840820313	-749.9394531250002	1122.150634765625	508.4573669433594	-778.0028076171877	1115.863159179688	422.5008544921875	-795.2601318359378	1114.982788085938	473.4667053222656	-680.1135864257815	856.6683349609377	494.7146301269532	-747.0260009765627	869.708190917969	537.117431640625	-671.4177246093752	765.9446411132814	512.9329223632812	-773.3738403320316	789.153259277344	533.126220703125	
